<svg width="512" height="512" viewBox="100 100 824 824" xmlns="http://www.w3.org/2000/svg">
  <defs>
    <linearGradient id="bg" x1="0" y1="0" x2="1" y2="1">
      <stop offset="0" stop-color="#7c3aed"/>
      <stop offset="0.5" stop-color="#4413a8"/>
      <stop offset="1" stop-color="#160833"/>
    </linearGradient>
    <radialGradient id="glow" cx="0.5" cy="0.46" r="0.55">
      <stop offset="0" stop-color="#ffd23f" stop-opacity="0.55"/>
      <stop offset="0.55" stop-color="#ff7ad9" stop-opacity="0.12"/>
      <stop offset="1" stop-color="#ffffff" stop-opacity="0"/>
    </radialGradient>
    <linearGradient id="cap" x1="0" y1="0" x2="0" y2="1">
      <stop offset="0" stop-color="#fffdf6"/>
      <stop offset="1" stop-color="#ffe9b3"/>
    </linearGradient>
    <linearGradient id="capFace" x1="0" y1="0" x2="0" y2="1">
      <stop offset="0" stop-color="#ffffff"/>
      <stop offset="1" stop-color="#fff3d4"/>
    </linearGradient>
    <radialGradient id="starGrad" cx="0.5" cy="0.4" r="0.7">
      <stop offset="0" stop-color="#ffe98a"/>
      <stop offset="1" stop-color="#ffb31f"/>
    </radialGradient>
    <clipPath id="round">
      <rect x="100" y="100" width="824" height="824" rx="185" ry="185"/>
    </clipPath>
  </defs>

  <g clip-path="url(#round)">
    <rect x="100" y="100" width="824" height="824" fill="url(#bg)"/>
    <rect x="100" y="100" width="824" height="824" fill="url(#glow)"/>

    <g transform="translate(512 498)" opacity="0.9">
      <g fill="#ff5d8f"><path d="M0 -360 L26 -250 L-26 -250 Z"/></g>
      <g fill="#5ce1e6" transform="rotate(45)"><path d="M0 -360 L26 -250 L-26 -250 Z"/></g>
      <g fill="#ffd23f" transform="rotate(90)"><path d="M0 -360 L26 -250 L-26 -250 Z"/></g>
      <g fill="#7cf26b" transform="rotate(135)"><path d="M0 -360 L26 -250 L-26 -250 Z"/></g>
      <g fill="#ff9b3f" transform="rotate(180)"><path d="M0 -360 L26 -250 L-26 -250 Z"/></g>
      <g fill="#a78bfa" transform="rotate(225)"><path d="M0 -360 L26 -250 L-26 -250 Z"/></g>
      <g fill="#5ea0ff" transform="rotate(270)"><path d="M0 -360 L26 -250 L-26 -250 Z"/></g>
      <g fill="#ff6bd6" transform="rotate(315)"><path d="M0 -360 L26 -250 L-26 -250 Z"/></g>
    </g>

    <g>
      <circle cx="226" cy="232" r="20" fill="#ff5d8f"/>
      <circle cx="800" cy="244" r="16" fill="#5ce1e6"/>
      <circle cx="262" cy="788" r="17" fill="#7cf26b"/>
      <circle cx="792" cy="772" r="21" fill="#ffd23f"/>
      <rect x="690" y="170" width="34" height="34" rx="9" transform="rotate(20 707 187)" fill="#ff9b3f"/>
      <rect x="300" y="150" width="30" height="30" rx="8" transform="rotate(-15 315 165)" fill="#5ea0ff"/>
      <rect x="160" y="540" width="32" height="32" rx="8" transform="rotate(25 176 556)" fill="#ff6bd6"/>
      <rect x="836" y="520" width="30" height="30" rx="8" transform="rotate(-20 851 535)" fill="#a78bfa"/>
    </g>

    <ellipse cx="512" cy="742" rx="206" ry="40" fill="#0c0524" opacity="0.45"/>
    <rect x="330" y="332" width="364" height="380" rx="66" ry="66" fill="#c99a3f"/>
    <rect x="330" y="332" width="364" height="356" rx="66" ry="66" fill="url(#cap)"/>
    <rect x="364" y="364" width="296" height="276" rx="44" ry="44" fill="url(#capFace)" stroke="#ffe2a0" stroke-width="4"/>

    <path transform="translate(512 502) scale(1.05)"
      d="M0 -92 L26 -28 L94 -22 L42 22 L58 90 L0 54 L-58 90 L-42 22 L-94 -22 L-26 -28 Z"
      fill="url(#starGrad)" stroke="#ffffff" stroke-width="7" stroke-linejoin="round"/>

    <g fill="#ffffff">
      <path d="M712 612 l8 22 22 8 -22 8 -8 22 -8 -22 -22 -8 22 -8 Z" opacity="0.9"/>
      <path d="M300 420 l6 16 16 6 -16 6 -6 16 -6 -16 -16 -6 16 -6 Z" opacity="0.8"/>
    </g>
  </g>
</svg>
